<?xml version="1.0" encoding="utf-8"?>
<!-- Generator: Adobe Illustrator 15.0.0, SVG Export Plug-In  -->
<!DOCTYPE svg PUBLIC "-//W3C//DTD SVG 1.1//EN" "http://www.w3.org/Graphics/SVG/1.1/DTD/svg11.dtd" [
	<!ENTITY ns_flows "http://ns.adobe.com/Flows/1.0/">
]>
<svg version="1.1"
	 xmlns="http://www.w3.org/2000/svg" xmlns:xlink="http://www.w3.org/1999/xlink" xmlns:a="http://ns.adobe.com/AdobeSVGViewerExtensions/3.0/"
	 x="0px" y="0px" width="46px" height="46px" viewBox="0 0 46 46" overflow="visible" enable-background="new 0 0 46 46"
	 xml:space="preserve">
<defs>
</defs>
<path fill="#C2D4C8" d="M33.375,20.284c-3.553,0-4.047,3.548-4.047,3.548h7.553C36.88,23.832,36.927,20.284,33.375,20.284
	L33.375,20.284z M33.375,20.284"/>
<path fill="#C2D4C8" d="M16.236,23.832H9.542v6.143h6.386c0.959-0.025,2.732-0.326,2.732-2.984
	C18.66,23.801,16.236,23.832,16.236,23.832L16.236,23.832z M16.236,23.832"/>
<path fill="#C2D4C8" d="M17.861,17.545c0-2.391-1.625-2.391-1.625-2.391H9.542v5.13h6.278
	C16.906,20.284,17.861,19.938,17.861,17.545L17.861,17.545z M17.861,17.545"/>
<path fill="#C2D4C8" d="M43.191,0H2.428C1.088,0,0,1.086,0,2.427v40.765c0,1.34,1.088,2.426,2.428,2.426h40.763
	c1.342,0,2.426-1.086,2.426-2.426V2.427C45.617,1.086,44.533,0,43.191,0L43.191,0z M28.337,12.422h9.486v2.832h-9.486V12.422z
	 M23.539,27.277c0,7.018-7.302,6.785-7.302,6.785H4.268V11.066h11.969c3.637,0,6.506,2.007,6.506,6.123
	c0,4.115-3.506,4.377-3.506,4.377C23.859,21.566,23.539,27.277,23.539,27.277L23.539,27.277z M41.289,26.899H29.373
	c0,4.272,4.047,4.002,4.047,4.002c3.822,0,3.686-2.474,3.686-2.474h4.049c0,6.568-7.871,6.116-7.871,6.116
	c-9.441,0-8.836-8.792-8.836-8.792s-0.006-8.836,8.836-8.836C42.591,16.916,41.289,26.899,41.289,26.899L41.289,26.899z
	 M41.289,26.899"/>
</svg>
