<?xml version="1.0" encoding="utf-8"?>
<!-- Generator: Adobe Illustrator 17.0.0, SVG Export Plug-In . SVG Version: 6.00 Build 0)  -->
<!DOCTYPE svg PUBLIC "-//W3C//DTD SVG 1.1//EN" "http://www.w3.org/Graphics/SVG/1.1/DTD/svg11.dtd">
<svg version="1.1" id="Layer_1" xmlns="http://www.w3.org/2000/svg" xmlns:xlink="http://www.w3.org/1999/xlink" x="0px" y="0px"
	 width="1670px" height="1536px" viewBox="0 0 1670 1536" enable-background="new 0 0 1670 1536" xml:space="preserve">
<path fill="#996633" d="M1405.5,0h30.04c11.29,0.73,22.65,1.44,33.79,3.7c-27.91,29.55-68.51,38.32-106.81,45.68
	c-5.9-0.73-19.04,7.65-6.33,8.57c85.29-8.1,174.58-22.07,258.07,3.04c-20.43,17.64-46.87,31.08-74.48,27.64
	c-2.88,9.01-13.93,0.71-19.54,3.3c-3.83,4.95-9.77,0.67-14.76,1.37c-15.76,5.47-33,2.97-49.04,6.05
	c-15.92,7.99-34.71,2.38-51.15,8.15c-25.8,3.72-52.43,2.16-77.87,8.1c-0.95,15.55,16.25,23.02,29.64,21.4
	c97.42,1.12,196.11-7.52,292.45,11.46c7.04,1.83,13.84,4.54,20.48,7.55v1.78c-12.96,7.56-25.9,15.51-39.51,21.72
	c-50.46,11.82-102.21,18.15-153.95,20.89c-4.41,7.88,5.17,5.5,9.08,7.02c56.59,7.11,114.81,14.19,166.51,39.73
	c-7.55,8.96-19.24,14.12-30.68,16.3c-40.69,8.67-82.66,10.47-124.09,9.72c-7.29,0.47-1.89,9.22,3.1,9.53
	c41.47,12.57,84.86,19.98,124.32,38.67c0.78,7.06-7.38,8.42-12.03,11.38c-21.48,14.71-48.85,12.6-73.58,15.35
	c-26.17,4.22-54.08,0.51-78.1,12.95c-6.94,10.36-14.5,20.98-25.54,27.31c-14.19,5.91-5.37,25.39-17.89,33.34
	c-7.83,13.05-22.44,15.46-35.27,20.21c-0.89,13.19,14.31,23.37,9.75,38.07c2.93,27.46-30.99,33.49-51.64,32.44
	c-0.59,11.29,3.34,26.99-8.95,33.5c-20.79,5.19-38.68-11.64-59.36-11.08c-10.76,0.52-20.3-5.86-30.95-5.39
	c-3.06,11.62,12.24,13.44,16.45,21.81c3.54,7.74,14.4,5.27,18.42,12.69c18.06,19.37,28.45,52.9,9.42,74.96
	c-13.54,6.73-25.78-4.3-37.25-10.1c-13.24-9.55-30.31-10.99-46.04-12.41c1.26,16.42,21.45,24.56,27.64,39.46
	c-4.73,3.36-18.75,2.26-10.02,10.91c28.95,16.17,16.5,74.33-20.09,68.89c-6.76,18.17,2.53,48.08-17.51,61.72
	c-4.73,5.07-13.46-0.82-18.28,3.53c-3.52,15.5-7.95,33.58-23.04,41.94c-10.79,4.1-8.08,17.68-14.88,25.28
	c-3.14,10.28-13.67,15.27-22.74,19.14c-5.86,13.14-11.78,28.07-25.29,35.15c-8.07,17.04-20.11,48.15-45.45,43.99
	c-8.4,17.43-18.59,46.09-43.45,43.85c-7.26,7.36-12.73,18.55-23.92,20.43c-7.17-2.24-12.23-11.97-20.42-9.02
	c-2.08,12.7-9.92,23.18-15.32,34.57c-3.62,8.18-15.19,3.19-21.26,6.61c-3.03,6.75-3.31,17.79-14.55,12.63
	c-22.73-6.06-44.74-15.85-64.42-28.72c-12.66-17.17-23.05-39.91-46.73-43.22c-13.71-2.77-20.97-15.09-29.69-24.7
	c-8.06-4.77-10.12,6.9-8.27,12.24c13.08,11.13,31.28,19.9,36.05,37.26c9.21,6,16.77,13.86,24.31,21.77
	c11.01,12.31,27.97,16.93,39.31,28.73c9.47,15.15,24.99,27.95,28.7,45.95c-8.22,3.69-17.17-6.72-25.21-1.55
	c-3.69,5.76-11.44,2.08-16.6,5.29c-0.36,4.44-1.44,10.8,3.7,12.97c28.55,8.59,55.88,20.59,84.9,27.8
	c13.03,4.32,27.26,4.9,39.5,11.52c26.09,13.86,56.08,19.52,80.71,36.25c10.26,6.45,7.4,20.19,8.51,30.34
	c2.6,11.85-18.48,11.72-14.86,24.66c6.62,11.54,24.75,7.04,31.45,19.26c0.56,9.25,12.5,13.03,10.86,22.99
	c-0.48,8.17,3.64,16.98,0.84,24.89c-6.82,0.37-13.61,1.4-20.35,2.05c-20.31-19.23-45.8-34.62-74.04-37.78
	c-5.01-1.06-12.36-5.32-15.96-0.06c20.45,30.77,50.83,59.07,82.23,81.01c8.33,8.89,19.58,14.99,26.64,24.96
	c1.5,8.94-1.06,18.35-3.87,26.9c-9.33,8.36-22.14,1.81-32.98,2.18c-3.16,8.31,6.91,11.04,9.54,17.37c-6.27-4.62-19.44-9.69-12.2,2.2
	c-1.55,10.3,4.92,18.85,9.34,27.84c-8.99-1.32-14.57-10.78-23.65-10.59c-1.13,13.02-14.14-6.95-21.98-1.64
	c-3.02,9.62,8.47,14.51,9.97,23.11c1.35,13.35,12.35,23.34,13.53,36.72c-12.87-6.38-25.85-14.34-38.34-22.03
	c-9.55-6.65-17.21-20.83-30.36-19.77c-0.36,12.86,0.38,26.9,9.02,37.24c3.41,8.19-11.41,2.38-13.18,7.08h-0.89
	c-12.58-11.95-26.43-22.64-41.07-31.91c-3.71-2.41-5.79-9.01-11.32-6.28c-0.8,12.78,5.58,25.73,0.41,38.19h-0.93
	c-4.05-2.8-9.64-3.18-13.55,0h-7.25c-18.85-18.24-38.74-37.96-46.9-63.6c-3.59-23.52-29.5-32.78-43.28-49.69
	c-24.55-33.21-46.13-72.46-85.02-90.9c-15.23-16.88-37.01-27.58-50.12-46.96c-2.24-6.68-7.49-13.76-15.51-12.47
	c-7.2-0.13-18.17-8.42-21.57,1.77c-7.42-1.47-11.46,3.32-14.72,9.29c-15.25-13.69-41.43-14.38-57.99-28.8
	c-8.3-5.26-12.43-15.79-22.02-19.09c-13.57-1.77-24.85-12.34-30.44-24.4c-7.29-9.95-18.31-16.75-29.56-21.17
	c-11.15,10.25-27.76,16.08-35.53,30.2c-7.33,3.11-15.6-7.38-22.63-1.09c-11.37,11.07-23.54,21.25-34.23,32.59
	c-14.99-10.27-27.35,7.75-31.59,20.64c-10.57-2.01-21.14,3.32-26.38,12.61c-9.62-10.57-23-16.47-37.34-16.19
	c-5.61-0.48-2.27-8.99-6.86-10.92c-12.15-7.11-27.76,8.09-38.34-4.14c-14.36-8.35-2.8-32.59-18.53-41.08
	c-8.13-1.4-16.67,6.47-23.59-1.58c2.59-25.87-35.51-27.84-52.36-20.95c-4.68,14.84-4.4,31.31-0.53,46.54
	c2.33,8.91-7.11,13.35-14.03,15.81c6.94-6.45,9.85-15.97,5.62-24.89c-2.52-10.09-16.61-4.69-20.53-13.19
	c-9.52-10.44,7.13-29.23-8.14-35.96c-31.96-2.96-55.18-32.09-87.74-31.93c9.01-5.68,19.91-1.25,29.39,0.56
	c14.99-3.76,26.29,11.57,41.7,7.12c12.83,3.68,12.68-14.63,2.58-17.44c-9.05-11.23-23.2-16.56-31.38-28.56
	c-9.07-10.15-25.35-12.82-31.14-25.92c-2.38-5.65,6.19-8.14,5.17-13.75c-3.96-8.9-12.52-14.5-21.92-15.9v-0.94
	c20.4-2.09,30.28,19.46,44.3,30.1c9.96,15.02,27.43,20.9,40.69,32.22c6.52,2.99,11.22,12.14,19.44,9.84
	c6.24-16.7-12.2-32.22-4.87-48.91c3.31-3.35,8.85-3.18,12.25-6.53c0.53-11.16-5.49-24.48-17.6-26.5
	c12.23-2.81,23.57,7.13,28.69,17.4c8.07,25.77,6.94,53.2,11.97,79.54c6.8,11.02,28.7,29.07,34.82,7.81
	c3.62-13.36,17.53-23.49,13.44-38.51c-5.92-18.35-10.19-39.61-29.8-48.31c-13.4-4.51-10.86-19.81-9.81-30.7
	c-14.345-11.43-33.814-6.009-35.84-23.87c-4.23-5.94,4.83-11.71,1.18-17.74c-6.17-6.75-14.23-12.5-23.8-12.32
	c22.29-8.42,35.78,15.28,52.18,25.56c6.57,13.27,22.46,6.75,32.67,14.45c13.74,15.42,24.39,34.42,40.68,47.38
	c18.66,4.74,33.7,20.94,53.84,19.82c20.65-5.61,40.79-13.02,61.1-19.77c21-9.46,36.82-26.44,53.35-41.87
	c-22.05-47.24-43.17-95.89-78.71-134.88c-9.95-9.84-10.03-25.56-20.5-34.61c-5.38-10.93-13.48-20.15-18.72-31.12
	c-20.55-18.03-49.26-19.14-74.95-23.29c-20.72-4.12-43.32,3.59-57.08,19.16c-24.25-11.16-32.15-49.9-10.56-67.6
	c23.32-16.35,33.59-45.92,60.45-58.51c18.66-19.31,47.28-25.1,73.14-20.85c43.56,0.18,87.93,2.49,129.62,16.42
	c13.49,5.44,28.23,5.14,42.43,7.11c16.45-4.13,30.33-17.11,44.35-27.11c12.33-7.09,9.87-23.92,21.94-31.19
	c6.08-15.94,24.32-16.26,38.77-15.05c6.73-3.81,13.59-7.39,20.75-10.31c10.87-8.31,18.95-21.71,33.25-24.67
	c6.4-1.63,1.75-11.23,7.36-13.76c5.58-2.89,12.85-5.85,12.58-13.46c-0.31-9.56,11.97-8.06,17.72-11.04
	c9.61-5.91,18.25-13.5,24.9-22.68c6.61-1.18,13.5,3.71,19.99,0.71c23.02-15.38,35.78-41.06,55.01-60.35
	c21.92-21.64,33.54-50.85,52.08-74.94c23.25-38.31,43.26-78.4,61.8-119.15c10.34-17.37,22.03-33.8,31.15-51.86
	c23.65-23.83,33.6-58.23,59.36-80.66c23.4-31.02,55.46-57.99,94.29-65.81c11.2-2.71,7.09,13.46,5.7,19.78
	c-1.15,14.76-21.93,18.87-21.14,34.06c-5.18,19.91,19.77,10.44,26.71,3.47c28.7-19.64,61.24-32.69,89.99-53.01
	c35.7-14.6,71.06-30.57,108-41.92c55.8-22.98,117-30.29,176.9-33.58 M245.65,1108.51c-9.99,2.97-20.91,1.2-30.66,4.52
	c-11.88,11.42-14.05,30.97-11.74,45.91c28.38-2.09,56.94-13.45,78.75-31.8c3.8-2.75,5.07-11.43-0.6-12.66
	C269.96,1110.31,258.1,1105.62,245.65,1108.51L245.65,1108.51z"/>
</svg>
