<?xml version="1.0" encoding="utf-8"?>
<!-- Generator: Adobe Illustrator 15.0.0, SVG Export Plug-In  -->
<!DOCTYPE svg PUBLIC "-//W3C//DTD SVG 1.1//EN" "http://www.w3.org/Graphics/SVG/1.1/DTD/svg11.dtd" [
	<!ENTITY ns_flows "http://ns.adobe.com/Flows/1.0/">
]>
<svg version="1.1"
	 xmlns="http://www.w3.org/2000/svg" xmlns:xlink="http://www.w3.org/1999/xlink" xmlns:a="http://ns.adobe.com/AdobeSVGViewerExtensions/3.0/"
	 x="0px" y="0px" width="45px" height="45px" viewBox="0 0 45 45" overflow="visible" enable-background="new 0 0 45 45"
	 xml:space="preserve">
<defs>
</defs>
<path fill="#C2D4C8" d="M41.732,0H3.338C1.494,0,0,1.451,0,3.232v38.615c0,1.773,1.494,3.221,3.338,3.221H41.73
	c1.844,0,3.338-1.447,3.338-3.221V3.232C45.068,1.451,43.574,0,41.732,0L41.732,0z M13.668,37.725H6.859V17.381h6.809V37.725z
	 M10.258,14.607h-0.045c-2.286,0-3.762-1.574-3.762-3.52c0-2.002,1.523-3.52,3.85-3.52c2.331,0,3.764,1.518,3.807,3.52
	C14.111,13.033,12.633,14.607,10.258,14.607L10.258,14.607z M38.207,37.725h-6.793V26.844c0-2.734-1-4.615-3.463-4.615
	c-1.892,0-2.996,1.268-3.484,2.494c-0.176,0.418-0.225,1.027-0.225,1.641v11.361h-6.811c0,0,0.086-18.439,0-20.344h6.811v2.885
	c0.893-1.385,2.514-3.365,6.128-3.365c4.485,0,7.837,2.908,7.837,9.16V37.725z M24.201,20.33c0.006-0.018,0.015-0.041,0.039-0.062
	v0.062H24.201z M24.201,20.33"/>
</svg>
