<?xml version="1.0" encoding="utf-8"?>
<!-- Generator: Adobe Illustrator 15.0.0, SVG Export Plug-In  -->
<!DOCTYPE svg PUBLIC "-//W3C//DTD SVG 1.1//EN" "http://www.w3.org/Graphics/SVG/1.1/DTD/svg11.dtd" [
	<!ENTITY ns_flows "http://ns.adobe.com/Flows/1.0/">
]>
<svg version="1.1"
	 xmlns="http://www.w3.org/2000/svg" xmlns:xlink="http://www.w3.org/1999/xlink" xmlns:a="http://ns.adobe.com/AdobeSVGViewerExtensions/3.0/"
	 x="0px" y="0px" width="23px" height="18px" viewBox="0 0 23 18" overflow="visible" enable-background="new 0 0 23 18"
	 xml:space="preserve">
<defs>
</defs>
<path fill="#C2D4C8" d="M20.844,17.983c0.514,0,0.959-0.171,1.338-0.505L15.7,10.992c-0.156,0.112-0.307,0.221-0.449,0.324
	c-0.486,0.357-0.879,0.637-1.182,0.836c-0.303,0.2-0.705,0.404-1.207,0.613c-0.502,0.209-0.971,0.312-1.405,0.312h-0.025
	c-0.435,0-0.903-0.104-1.406-0.312c-0.502-0.209-0.905-0.413-1.207-0.613c-0.301-0.199-0.695-0.479-1.181-0.836
	c-0.134-0.1-0.285-0.209-0.448-0.324l-6.486,6.486c0.379,0.334,0.825,0.505,1.34,0.505H20.844z M20.844,17.983"/>
<path fill="#C2D4C8" d="M1.291,6.91C0.805,6.586,0.375,6.216,0,5.799v9.865l5.716-5.716C4.572,9.15,3.098,8.139,1.291,6.91
	L1.291,6.91z M1.291,6.91"/>
<path fill="#C2D4C8" d="M21.61,6.91c-1.739,1.177-3.217,2.189-4.436,3.041l5.714,5.713V5.799C22.522,6.207,22.096,6.577,21.61,6.91
	L21.61,6.91z M21.61,6.91"/>
<path fill="#C2D4C8" d="M20.844,0h-18.8C1.388,0,0.883,0.221,0.531,0.664C0.177,1.107,0,1.66,0,2.324
	c0,0.537,0.235,1.117,0.703,1.744c0.468,0.625,0.966,1.117,1.494,1.475c0.289,0.203,1.162,0.811,2.619,1.82
	c0.787,0.545,1.47,1.02,2.058,1.43c0.5,0.349,0.932,0.65,1.289,0.901C8.203,9.723,8.267,9.77,8.352,9.83
	c0.092,0.065,0.208,0.149,0.353,0.254c0.277,0.201,0.507,0.361,0.689,0.484c0.184,0.123,0.405,0.263,0.665,0.416
	c0.259,0.152,0.505,0.269,0.734,0.344c0.23,0.077,0.442,0.115,0.639,0.115h0.025c0.196,0,0.41-0.038,0.64-0.115
	c0.229-0.075,0.475-0.191,0.734-0.344c0.259-0.153,0.48-0.293,0.664-0.416s0.413-0.283,0.69-0.484
	c0.143-0.104,0.259-0.188,0.351-0.254c0.086-0.061,0.15-0.107,0.191-0.136c0.277-0.192,0.71-0.495,1.293-0.898
	c1.059-0.735,2.617-1.818,4.684-3.253c0.622-0.434,1.141-0.959,1.559-1.57c0.418-0.613,0.626-1.256,0.626-1.929
	c0-0.562-0.202-1.043-0.607-1.444C21.877,0.2,21.398,0,20.844,0L20.844,0z M20.844,0"/>
</svg>
