<?xml version="1.0" encoding="utf-8"?>
<!-- Generator: Adobe Illustrator 15.0.0, SVG Export Plug-In  -->
<!DOCTYPE svg PUBLIC "-//W3C//DTD SVG 1.1//EN" "http://www.w3.org/Graphics/SVG/1.1/DTD/svg11.dtd" [
	<!ENTITY ns_flows "http://ns.adobe.com/Flows/1.0/">
]>
<svg version="1.1"
	 xmlns="http://www.w3.org/2000/svg" xmlns:xlink="http://www.w3.org/1999/xlink" xmlns:a="http://ns.adobe.com/AdobeSVGViewerExtensions/3.0/"
	 x="0px" y="0px" width="17px" height="27px" viewBox="0 0 17 27" overflow="visible" enable-background="new 0 0 17 27"
	 xml:space="preserve">
<defs>
</defs>
<path fill="#C2D4C8" d="M14.578,0H2.572C1.157,0,0,1.157,0,2.572v22.296c0,1.414,1.157,2.572,2.572,2.572h12.006
	c1.414,0,2.572-1.158,2.572-2.572V2.572C17.15,1.157,15.992,0,14.578,0L14.578,0z M5.145,1.286h6.86v0.857h-6.86V1.286z
	 M8.574,25.726c-0.947,0-1.715-0.768-1.715-1.715s0.768-1.715,1.715-1.715s1.716,0.768,1.716,1.715S9.521,25.726,8.574,25.726
	L8.574,25.726z M15.436,20.58H1.715V3.431h13.721V20.58z M15.436,20.58"/>
</svg>
