<?xml version="1.0" encoding="utf-8"?>
<!-- Generator: Adobe Illustrator 15.0.0, SVG Export Plug-In  -->
<!DOCTYPE svg PUBLIC "-//W3C//DTD SVG 1.1//EN" "http://www.w3.org/Graphics/SVG/1.1/DTD/svg11.dtd" [
	<!ENTITY ns_flows "http://ns.adobe.com/Flows/1.0/">
]>
<svg version="1.1"
	 xmlns="http://www.w3.org/2000/svg" xmlns:xlink="http://www.w3.org/1999/xlink" xmlns:a="http://ns.adobe.com/AdobeSVGViewerExtensions/3.0/"
	 x="0px" y="0px" width="207px" height="113px" viewBox="0 0 207 113" overflow="visible" enable-background="new 0 0 207 113"
	 xml:space="preserve">
<defs>
</defs>
<path fill="#FFFFFF" d="M99.412,99.421c-0.016-0.114-0.078-0.216-0.168-0.283l-4.632-3.463l4.632-3.464
	c0.09-0.067,0.152-0.17,0.168-0.283c0.016-0.112-0.013-0.228-0.081-0.319l-0.736-0.984c-0.143-0.189-0.412-0.228-0.601-0.087
	l-6.409,4.792c-0.108,0.083-0.172,0.208-0.172,0.346c0,0.135,0.064,0.262,0.172,0.345l6.409,4.792
	c0.077,0.058,0.167,0.085,0.256,0.085c0.131,0,0.259-0.061,0.345-0.172l0.736-0.984C99.398,99.648,99.428,99.533,99.412,99.421
	L99.412,99.421z M99.412,99.421"/>
<path fill="#FFFFFF" d="M115.412,95.329l-6.407-4.792c-0.189-0.141-0.459-0.103-0.603,0.087l-0.735,0.984
	c-0.068,0.092-0.098,0.207-0.082,0.319c0.018,0.113,0.077,0.216,0.168,0.283l4.633,3.464l-4.633,3.463
	c-0.091,0.067-0.15,0.169-0.168,0.283c-0.016,0.112,0.014,0.228,0.082,0.319l0.735,0.984c0.085,0.111,0.214,0.172,0.346,0.172
	c0.091,0,0.18-0.027,0.257-0.085l6.407-4.792c0.109-0.083,0.173-0.21,0.173-0.345C115.585,95.537,115.521,95.412,115.412,95.329
	L115.412,95.329z M115.412,95.329"/>
<path fill="#FFFFFF" d="M107.61,87.979l-1.131-0.477c-0.104-0.044-0.224-0.046-0.328-0.004c-0.106,0.042-0.191,0.125-0.236,0.23
	l-6.756,15.981c-0.094,0.219,0.009,0.471,0.228,0.564l1.132,0.479c0.054,0.021,0.109,0.033,0.168,0.033
	c0.054,0,0.109-0.011,0.16-0.031c0.107-0.043,0.191-0.125,0.234-0.23l6.758-15.981C107.933,88.325,107.829,88.072,107.61,87.979
	L107.61,87.979z M107.61,87.979"/>
<path fill="#FFFFFF" d="M121.35,72.749H85.648c-1.186,0-2.149,0.966-2.149,2.151v33.621c0,1.184,0.963,2.149,2.149,2.149h35.701
	c1.185,0,2.15-0.966,2.15-2.149V74.9C123.5,73.715,122.534,72.749,121.35,72.749L121.35,72.749z M117.095,76.046
	c0.983,0,1.781,0.801,1.781,1.781c0,0.982-0.798,1.781-1.781,1.781c-0.982,0-1.781-0.799-1.781-1.781
	C115.313,76.847,116.112,76.046,117.095,76.046L117.095,76.046z M111.054,76.046c0.983,0,1.781,0.801,1.781,1.781
	c0,0.982-0.798,1.781-1.781,1.781c-0.98,0-1.781-0.799-1.781-1.781C109.272,76.847,110.073,76.046,111.054,76.046L111.054,76.046z
	 M88.953,76.905h7.187c0.509,0,0.922,0.413,0.922,0.922s-0.413,0.922-0.922,0.922h-7.187c-0.509,0-0.922-0.413-0.922-0.922
	S88.444,76.905,88.953,76.905L88.953,76.905z M120.085,106.945c0,0.154-0.126,0.279-0.281,0.279h-32.61
	c-0.155,0-0.281-0.125-0.281-0.279V83.791h33.172V106.945z M120.085,106.945"/>
<path fill-rule="evenodd" clip-rule="evenodd" fill="#FFFFFF" d="M69.658,0c1.354,0,2.709,0,4.063,0c0,6.385,0,12.771,0,19.155
	c1.063,0.679,2.635,0.848,2.901,2.322c-0.36,2.804-3.565,2.22-5.804,1.741C68.353,17.558,70.258,7.526,69.658,0z"/>
<path fill-rule="evenodd" clip-rule="evenodd" fill="#FFFFFF" d="M87.072,0c0.581,0,1.161,0,1.741,0
	c2.102,1.665,1.161,7.135,1.161,11.029c0,4.017,0,8.146,0,11.609C75.504,30.592,71.213,4.612,87.072,7.546
	C87.072,5.03,87.072,2.516,87.072,0z M86.492,21.478c0.944-2.856,0.944-9.334,0-12.19C77.182,7.316,77.182,23.448,86.492,21.478z"/>
<path fill-rule="evenodd" clip-rule="evenodd" fill="#FFFFFF" d="M106.228,0c0.967,0,1.935,0,2.902,0c0,6.579,0,13.157,0,19.735
	c-0.678,2.613,3.243,0.627,2.321,3.483C102.175,25.236,107.737,7.657,106.228,0z"/>
<path fill-rule="evenodd" clip-rule="evenodd" fill="#FFFFFF" d="M169.5,0c1.354,0,2.709,0,4.063,0c0,6.385,0,12.771,0,19.155
	c1.063,0.679,2.636,0.848,2.902,2.322c-0.361,2.804-3.565,2.22-5.805,1.741C168.195,17.558,170.1,7.526,169.5,0z"/>
<path fill-rule="evenodd" clip-rule="evenodd" fill="#FFFFFF" d="M48.761,2.902c0,1.354,0,2.708,0,4.063
	c0.433,1.31,3.256,0.227,4.644,0.58c-0.038,2.477-1.688,3.343-4.644,2.902c0,3.096,0,6.191,0,9.287
	c1.009,1.458,4.105-1.479,4.644,1.162c-0.396,3.893-6.959,3.173-8.707,1.16c-0.313-3.75,0.674-8.801-0.581-11.609
	c-2.58,0.516-6.022,0.169-7.546,1.741c0,3.677,0,7.353,0,11.029c-1.354,0-2.71,0-4.063,0c0-5.225,0-10.448,0-15.673
	c5.199,1.848,6.144-1.258,11.609,0c1.379-0.363-0.09-3.573,1.161-4.063C47.053,3.903,46.985,2.481,48.761,2.902z"/>
<path fill-rule="evenodd" clip-rule="evenodd" fill="#FFFFFF" d="M4.063,23.219c0,2.708,0,5.418,0,8.127c-1.355,0-2.708,0-4.063,0
	c0-7.74,0-15.479,0-23.219c5.102-0.986,9.732-2.123,12.771,1.16C17.832,14.756,12.934,26.08,4.063,23.219z M4.644,20.316
	c7.809,1.45,7.409-11.228,0-9.868C3.71,12.592,3.71,18.173,4.644,20.316z"/>
<path fill-rule="evenodd" clip-rule="evenodd" fill="#FFFFFF" d="M22.059,7.546c14.398-2.633,10.123,21.321-2.321,15.673
	C13.226,20.265,14.086,9.003,22.059,7.546z M23.8,10.448c-3.941-0.303-5.416,5.002-2.902,9.287c1.363,0.185,2.179,0.918,4.063,0.581
	C28.664,17.737,27.871,10.761,23.8,10.448z"/>
<path fill-rule="evenodd" clip-rule="evenodd" fill="#FFFFFF" d="M66.756,9.287c1.009,3.827,0.435,9.239,0.58,13.932
	c-1.197-0.352-4.033,0.937-3.483-1.161c-9.57,7.749-14.861-12.022-0.58-8.707c0.56-5.133-6.333-1.665-7.546-2.321
	c0.094-0.675-0.129-1.033-0.581-1.162C56.624,5.799,64.502,6.675,66.756,9.287z M58.048,17.994
	c-0.153,2.799,3.342,2.593,5.225,1.741c0-1.16,0-2.321,0-3.482C61.078,16.381,58.038,15.662,58.048,17.994z"/>
<path fill-rule="evenodd" clip-rule="evenodd" fill="#FFFFFF" d="M104.486,15.672c-3.289,0-6.578,0-9.868,0
	c-0.353,3.45,1.895,4.298,3.483,5.806c2.787,0.888,4.976-2.466,5.804,0c-1.106,2.235-3.203,2.318-4.644,2.321
	c-12.381,0.027-7.092-23.087,2.902-15.672C103.971,9.467,104.243,11.74,104.486,15.672z M94.618,13.931c2.322,0,4.644,0,6.967,0
	C102.568,7.765,93.803,8.263,94.618,13.931z"/>
<path fill-rule="evenodd" clip-rule="evenodd" fill="#FFFFFF" d="M125.383,16.253c-3.289,0-6.578,0-9.868,0
	c0.034,4.593,5.501,4.539,8.708,2.902c2.206,5.626-7.254,5.187-9.868,3.483c-7.896-5.147-0.174-19.836,8.127-14.512
	C124.204,9.232,125.523,11.745,125.383,16.253z M115.515,13.351c1.765-0.364,5.001,0.743,5.805-0.58
	c-0.676-0.098-0.63-0.918-0.58-1.741C118.941,9.799,114.781,10.219,115.515,13.351z"/>
<path fill-rule="evenodd" clip-rule="evenodd" fill="#FFFFFF" d="M150.344,8.707c1.178,3.854,0.321,9.74,0.581,14.512
	c-1.354,0-2.71,0-4.063,0c-0.458-4.187,1.1-10.388-1.161-12.771c-6.661-0.856-4.227,7.383-4.644,12.771c-1.354,0-2.709,0-4.063,0
	c-0.32-3.938,0.683-9.195-0.58-12.189c-6.492-2.767-5.305,6.517-5.225,12.189c-1.354,0-2.709,0-4.063,0c0-5.225,0-10.448,0-15.673
	c5.254,2.309,9.473-2.736,13.352,1.741C142.902,6.94,147.582,6.424,150.344,8.707z"/>
<path fill-rule="evenodd" clip-rule="evenodd" fill="#FFFFFF" d="M157.311,23.219c0,2.708,0,5.418,0,8.127c-1.355,0-2.71,0-4.063,0
	c0-7.74,0-15.479,0-23.219c5.1-0.986,9.731-2.123,12.77,1.16C171.078,14.756,166.181,26.08,157.311,23.219z M157.891,20.316
	c7.808,1.45,7.408-11.228,0-9.868C156.956,12.592,156.956,18.173,157.891,20.316z"/>
<path fill-rule="evenodd" clip-rule="evenodd" fill="#FFFFFF" d="M190.397,16.253c-3.29,0-6.578,0-9.868,0
	c0.033,4.593,5.501,4.539,8.707,2.902c2.206,5.626-7.255,5.187-9.868,3.483c-7.896-5.147-0.173-19.836,8.126-14.512
	C189.219,9.232,190.536,11.745,190.397,16.253z M180.529,13.351c1.764-0.364,4.999,0.743,5.805-0.58
	c-0.677-0.098-0.63-0.918-0.58-1.741C183.956,9.799,179.795,10.219,180.529,13.351z"/>
<path fill-rule="evenodd" clip-rule="evenodd" fill="#FFFFFF" d="M197.944,7.546c14.398-2.633,10.123,21.321-2.323,15.673
	C189.111,20.265,189.972,9.003,197.944,7.546z M199.685,10.448c-3.942-0.303-5.415,5.002-2.902,9.287
	c1.362,0.185,2.18,0.918,4.063,0.581C204.55,17.737,203.756,10.761,199.685,10.448z"/>
<path fill-rule="evenodd" clip-rule="evenodd" fill="#FFFFFF" d="M110.871,24.961c2.25,0.093,0.918,6.791,1.161,6.965
	C109.554,31.695,111.479,27.062,110.871,24.961z"/>
<path fill-rule="evenodd" clip-rule="evenodd" fill="#FFFFFF" d="M133.51,24.961c1.553,0.769,1.598,3.045,4.063,2.901
	c0.337,1.885-0.396,2.701-0.58,4.063c-1.161,0-2.322,0-3.483,0C133.51,29.604,133.51,27.282,133.51,24.961z M134.671,31.346
	c1.825,0.665,1.41-0.912,2.322-1.161c0.098-1.453-0.893-1.817-1.742-2.322C134.583,28.549,134.595,29.915,134.671,31.346z"/>
<path fill-rule="evenodd" clip-rule="evenodd" fill="#FFFFFF" d="M71.979,27.282c1.761-0.213,1.205,1.892,1.742,2.902
	c1.32-0.421,0.173-3.311,2.321-2.902c-0.479,1.641,0.818,1.504,0.58,2.902c1.179-0.37,0.383-2.714,1.742-2.902
	c1.813-0.265,1.855,1.24,1.741,2.902c0.861-0.493,1.248-1.461,1.161-2.902c1.813-0.265,1.856,1.24,1.741,2.902
	c0.861-0.493,1.249-1.461,1.161-2.902c0.773,0,1.549,0,2.322,0c-0.48,1.641,0.817,1.504,0.58,2.902
	c1.321-0.421,0.173-3.311,2.322-2.902c-0.479,1.641,0.818,1.504,0.58,2.902c0.863-0.492,0.841-1.868,1.161-2.902
	c1.211,1.062,0.272,4.882-1.741,4.644c0.479-1.64-0.818-1.504-0.581-2.902c-1.285,0.456,0.111,3.594-2.321,2.902
	c0.421-1.775-1.002-1.708-0.581-3.483c-1.76-0.019-1.445,2.037-1.741,3.483c-1.633,0.084-1.675-1.422-1.741-2.902
	c-0.861,0.493-1.248,1.462-1.161,2.902c-2.173,0.046-1.979-2.276-2.321-4.063c-1.528,0.795-0.274,4.371-2.903,4.063
	c0.479-1.64-0.817-1.504-0.58-2.902c-1.286,0.456,0.11,3.594-2.321,2.902C73.296,29.836,72.068,29.129,71.979,27.282z"/>
<path fill-rule="evenodd" clip-rule="evenodd" fill="#FFFFFF" d="M97.521,27.282c-0.074,1.04,0.711,1.225,0.58,2.322
	c-0.968,0-1.935,0-2.903,0c-0.265,1.813,1.241,1.855,2.903,1.741c-0.898,1.599-3.484,0.056-4.063-0.58
	C93.731,28.136,94.892,26.976,97.521,27.282z M95.198,29.023c0.913-0.056,2.013,0.078,1.742-1.161c-0.387,0-0.773,0-1.16,0
	C95.781,28.445,95.31,28.554,95.198,29.023z"/>
<path fill-rule="evenodd" clip-rule="evenodd" fill="#FFFFFF" d="M98.682,27.282c3.311-0.014,3.508,0.447,6.385,0
	c0.896,0.843,0.511,2.972,0.58,4.644c-2.561,0.818-0.009-3.474-1.741-3.483c-2.097-0.55-0.81,2.286-1.161,3.483
	c-2.559,0.818-0.01-3.474-1.74-3.483c-2.768-0.831,0.445,4.316-2.322,3.483C98.682,30.378,98.682,28.83,98.682,27.282z"/>
<path fill-rule="evenodd" clip-rule="evenodd" fill="#FFFFFF" d="M106.228,27.282c2.21-0.275,3.623,0.246,4.063,1.741
	c0.132,2.068-0.835,3.035-2.903,2.902c-0.131,1.028,0.586,2.907-1.16,2.322C106.228,31.926,106.228,29.604,106.228,27.282z
	 M107.388,31.346c1.813,0.265,1.856-1.24,1.742-2.903c-0.8,0.026-1.274-0.272-1.742-0.58
	C107.388,29.023,107.388,30.185,107.388,31.346z"/>
<path fill-rule="evenodd" clip-rule="evenodd" fill="#FFFFFF" d="M113.773,27.282c1.44-0.085,2.816-0.107,2.902,1.16
	c-0.63,1.194-4.696,2.914,0,2.903c-0.244,1.292-3.08,0.454-3.482,0C113.199,29.804,112.974,28.03,113.773,27.282z M116.096,28.442
	c-0.743-0.031-0.804-0.743-1.741-0.58C113.452,29.291,116.326,29.569,116.096,28.442z"/>
<path fill-rule="evenodd" clip-rule="evenodd" fill="#FFFFFF" d="M120.739,27.282c0.334,1.214,1.439,1.656,1.161,3.483
	c-1.057,1.458-3.588,1.458-4.645,0C117.309,28.495,117.967,26.831,120.739,27.282z M120.159,31.346
	c0.894-0.885,1.033-3.98-1.161-3.483C118.104,28.747,117.964,31.843,120.159,31.346z"/>
<path fill-rule="evenodd" clip-rule="evenodd" fill="#FFFFFF" d="M128.286,27.282c-0.983,1.146,0.017,4.274-2.903,3.483
	c0.242,1.306,3.184-0.088,2.903,1.74c0.378,2.315-2.208,1.664-4.063,1.742c-0.797-2.519,0.879-3.234,0-6.386
	C124.971,27.062,126.744,27.288,128.286,27.282z M124.803,29.023c0.785,0.183,1.109,0.827,2.322,0.581
	C127.562,27.624,124.907,27.34,124.803,29.023z M124.803,33.087c0.739,0.792,2.844,0.897,2.902-0.581
	C126.352,32.33,125.204,31.268,124.803,33.087z"/>
<path fill-rule="evenodd" clip-rule="evenodd" fill="#FFFFFF" d="M129.446,27.282c3.46-0.692,4.053,2.378,2.903,4.644
	c-0.969,0-1.935,0-2.903,0C128.594,31.082,128.594,28.127,129.446,27.282z M131.769,31.346c0.023-1.765,0.338-3.82-1.742-3.483
	C129.379,29.437,128.892,31.865,131.769,31.346z"/>
<path fill-rule="evenodd" clip-rule="evenodd" fill="#FFFFFF" d="M140.477,27.282c1.697,0.389,3.302,0.415,5.804,0
	c0.8,0.748,0.575,2.521,0.581,4.063c-1.091,1.79-0.071-3.357-1.161-3.483c-1.533,0.209-2.089,1.396-1.742,3.483
	c0.043,0.014-2.505-7.559-2.901,0C140.084,33.018,140.594,28.38,140.477,27.282z"/>
<path fill-rule="evenodd" clip-rule="evenodd" fill="#FFFFFF" d="M147.441,27.862c1.949-0.731,1.855,2.045,4.063-0.58
	c-0.388,1.698-2.055,2.853,0,4.063c-1.267,0.628-2.019-1.123-4.063,0.58C148.385,31.24,149.551,28.251,147.441,27.862z"/>
</svg>
