<?xml version="1.0" encoding="utf-8"?>
<!-- Generator: Adobe Illustrator 15.0.0, SVG Export Plug-In  -->
<!DOCTYPE svg PUBLIC "-//W3C//DTD SVG 1.1//EN" "http://www.w3.org/Graphics/SVG/1.1/DTD/svg11.dtd" [
	<!ENTITY ns_flows "http://ns.adobe.com/Flows/1.0/">
]>
<svg version="1.1"
	 xmlns="http://www.w3.org/2000/svg" xmlns:xlink="http://www.w3.org/1999/xlink" xmlns:a="http://ns.adobe.com/AdobeSVGViewerExtensions/3.0/"
	 x="0px" y="0px" width="437px" height="461px" viewBox="0 0 437 461" overflow="visible" enable-background="new 0 0 437 461"
	 xml:space="preserve">
<defs>
</defs>
<line fill="none" stroke="#C2D4C8" stroke-miterlimit="10" x1="81" y1="409.123" x2="217" y2="409.123"/>
<line fill="none" stroke="#C2D4C8" stroke-miterlimit="10" x1="80" y1="107.123" x2="216" y2="107.123"/>
<line fill="none" stroke="#E6F1F5" stroke-miterlimit="10" stroke-dasharray="5,5" x1="51" y1="455.123" x2="192" y2="455.123"/>
<line fill="none" stroke="#E6F1F5" stroke-miterlimit="10" stroke-dasharray="5,5" x1="51" y1="382.123" x2="192" y2="382.123"/>
<line fill="none" stroke="#E6F1F5" stroke-miterlimit="10" stroke-dasharray="5,5" x1="51" y1="307.123" x2="192" y2="307.123"/>
<line fill="none" stroke="#E6F1F5" stroke-miterlimit="10" stroke-dasharray="5,5" x1="51" y1="233.123" x2="192" y2="233.123"/>
<line fill="none" stroke="#E6F1F5" stroke-miterlimit="10" stroke-dasharray="5,5" x1="51" y1="159.123" x2="192" y2="159.123"/>
<line fill="none" stroke="#E6F1F5" stroke-miterlimit="10" stroke-dasharray="5,5" x1="51" y1="84.123" x2="192" y2="84.123"/>
<line fill="none" stroke="#E6F1F5" stroke-miterlimit="10" stroke-dasharray="5,5" x1="51" y1="10.123" x2="192" y2="10.123"/>
<text transform="matrix(1 0 0 1 0 455.248)" fill="#F1F1ED" font-family="'AvenirNext-Bold'" font-size="12">2009</text>
<text transform="matrix(1 0 0 1 0 381.0801)" fill="#F1F1ED" font-family="'AvenirNext-Bold'" font-size="12">2010</text>
<text transform="matrix(1 0 0 1 0 306.9141)" fill="#F1F1ED" font-family="'AvenirNext-Bold'" font-size="12">2011</text>
<text transform="matrix(1 0 0 1 0 232.748)" fill="#F1F1ED" font-family="'AvenirNext-Bold'" font-size="12">2012</text>
<text transform="matrix(1 0 0 1 0 158.582)" fill="#F1F1ED" font-family="'AvenirNext-Bold'" font-size="12">2013</text>
<text transform="matrix(1 0 0 1 0 84.4141)" fill="#F1F1ED" font-family="'AvenirNext-Bold'" font-size="12">2014</text>
<text transform="matrix(1 0 0 1 0 10.248)" fill="#F1F1ED" font-family="'AvenirNext-Bold'" font-size="12">2015</text>
<rect x="68" y="106.623" fill="#566573" width="10" height="297"/>
<rect x="68" y="402.623" fill="#C2D4C8" width="10" height="53"/>
<rect x="68" y="10.623" fill="#C2D4C8" width="10" height="96"/>
<circle fill="#808B96" stroke="#C2D4C8" stroke-width="5" stroke-miterlimit="10" cx="72.938" cy="106.215" r="7.5"/>
<rect x="161" y="214.623" fill="#566573" width="10" height="7"/>
<rect x="161" y="257.623" fill="#566573" width="10" height="13"/>
<rect x="161" y="221.623" fill="#72CBCA" width="10" height="36"/>
<rect x="161" y="105.623" fill="#72CBCA" width="10" height="109"/>
<rect x="161" y="270.623" fill="#72CBCA" width="10" height="74"/>
<circle fill="#566573" stroke="#72CBCA" stroke-width="5" stroke-miterlimit="10" cx="165.938" cy="249.215" r="7.5"/>
<circle fill="#566573" stroke="#72CBCA" stroke-width="5" stroke-miterlimit="10" cx="165.938" cy="207.215" r="7.5"/>
<rect x="161" y="344.623" fill="#566573" width="10" height="111"/>
<rect x="161" y="8.623" fill="#566573" width="10" height="97"/>
<circle fill="#566573" stroke="#72CBCA" stroke-width="5" stroke-miterlimit="10" cx="165.938" cy="337.215" r="7.5"/>
<rect x="115" y="9.623" fill="#079EA6" width="10" height="372"/>
<rect x="115" y="382.623" fill="#566573" width="10" height="74"/>
<circle fill="#566573" stroke="#079EA6" stroke-width="5" stroke-miterlimit="10" cx="119.469" cy="382.215" r="7.5"/>
<rect x="280.467" y="95.856" fill="none" width="182.677" height="36.172"/>
<text transform="matrix(1 0 0 1 280.4668 104.9287)"><tspan x="0" y="0" fill="#C2D4C8" font-family="'AvenirNext-Regular'" font-size="12">Maestría en Diseño, </tspan><tspan x="0" y="14.399" fill="#C2D4C8" font-family="'AvenirNext-Regular'" font-size="12">Información y Comunicación</tspan></text>
<rect x="280.467" y="373.391" fill="none" width="204.72" height="14.591"/>
<text transform="matrix(1 0 0 1 280.4668 382.4629)" fill="#079EA6" font-family="'AvenirNext-Regular'" font-size="12">Trabajo independiente</text>
<rect x="280.467" y="337.016" fill="none" width="206.72" height="14.591"/>
<text transform="matrix(1 0 0 1 280.4668 346.0879)" fill="#72CBCA" font-family="'AvenirNext-Regular'" font-size="12">PlazmaImagen</text>
<rect x="280.467" y="243.851" fill="none" width="121.72" height="14.591"/>
<text transform="matrix(1 0 0 1 280.4668 252.9229)" fill="#72CBCA" font-family="'AvenirNext-Regular'" font-size="12">Interalia</text>
<rect x="280.467" y="202.328" fill="none" width="123.72" height="14.591"/>
<text transform="matrix(1 0 0 1 280.4668 211.4004)" fill="#72CBCA" font-family="'AvenirNext-Regular'" font-size="12">Infotec</text>
<rect x="280.467" y="403.711" fill="none" width="175.202" height="33.912"/>
<text transform="matrix(1 0 0 1 280.4668 412.7832)"><tspan x="0" y="0" fill="#C2D4C8" font-family="'AvenirNext-Regular'" font-size="12">Licenciatura en Diseño de la </tspan><tspan x="0" y="14.399" fill="#C2D4C8" font-family="'AvenirNext-Regular'" font-size="12">Comunicación Gráfica</tspan></text>
<path fill="#C2D4C8" d="M239.569,415.799v4.235c0,0,3.592,3.969,8.64,3.969c6.353,0,8.641-3.969,8.641-3.969v-4.594l-7.46,4.359
	c-0.533,0.312-1.19,0.331-1.741,0.056L239.569,415.799z M239.569,415.799"/>
<path fill="#C2D4C8" d="M248.397,410.76c-0.933,0-1.86-0.192-2.361-0.597l-8.971,3.105l10.643,5.328
	c0.552,0.275,1.204,0.253,1.736-0.06l12.402-7.226c0.579-0.34,0.923-0.965,0.905-1.636c-0.023-0.67-0.409-1.272-1.006-1.575
	l-12.844-6.426c-0.551-0.276-1.203-0.253-1.736,0.055l-12.402,7.23c-0.579,0.335-0.923,0.964-0.906,1.635
	c0.024,0.666,0.41,1.272,1.007,1.571l-0.029,6.563c-0.639,0.226-1.097,0.836-1.097,1.553c0,0.533,0.248,1.006,0.638,1.31
	c-0.125,0.904-0.542,1.557-1.042,2.025c-0.405,0.372-0.616,0.905-0.579,1.451c0.031,0.547,0.312,1.053,0.756,1.369l0.231,0.165
	c0.423,0.299,0.95,0.409,1.456,0.29c0.51-0.115,0.942-0.437,1.194-0.887c0.873-1.562,0.449-3.588,0.16-4.557
	c0.298-0.299,0.487-0.712,0.487-1.167c0-0.712-0.454-1.323-1.087-1.553l0.023-6.266l9.736-3.371c0.084-0.413,0.502-0.79,0.502-0.79
	c-0.031,0.11,0.033,1.47,2.09,1.47c1.186,0,2.141-0.377,2.141-1.148c0-0.143-0.031-0.294-0.092-0.454
	c0.331,0.413,0.533,0.872,0.533,1.254C250.887,410.319,249.771,410.76,248.397,410.76L248.397,410.76z M248.397,410.76"/>
<path fill="#C2D4C8" d="M243.171,109.662v4.235c0,0,3.592,3.969,8.64,3.969c6.353,0,8.64-3.969,8.64-3.969v-4.593l-7.459,4.358
	c-0.533,0.312-1.189,0.331-1.741,0.056L243.171,109.662z M243.171,109.662"/>
<path fill="#C2D4C8" d="M252,104.623c-0.933,0-1.86-0.192-2.361-0.597l-8.971,3.105l10.643,5.328
	c0.551,0.275,1.203,0.253,1.736-0.06l12.402-7.226c0.579-0.34,0.924-0.965,0.905-1.636c-0.022-0.67-0.409-1.272-1.007-1.575
	l-12.843-6.427c-0.551-0.275-1.203-0.252-1.736,0.056l-12.402,7.229c-0.579,0.336-0.923,0.965-0.906,1.636
	c0.024,0.666,0.41,1.272,1.007,1.571l-0.028,6.563c-0.639,0.226-1.097,0.836-1.097,1.553c0,0.533,0.248,1.006,0.638,1.31
	c-0.125,0.904-0.542,1.557-1.042,2.025c-0.405,0.372-0.616,0.905-0.579,1.451c0.031,0.547,0.312,1.053,0.756,1.369l0.231,0.165
	c0.423,0.299,0.95,0.409,1.456,0.29c0.51-0.115,0.942-0.437,1.194-0.887c0.873-1.562,0.449-3.588,0.16-4.557
	c0.298-0.299,0.487-0.712,0.487-1.167c0-0.712-0.454-1.323-1.087-1.553l0.023-6.265l9.737-3.372c0.084-0.413,0.502-0.79,0.502-0.79
	c-0.033,0.11,0.031,1.47,2.09,1.47c1.185,0,2.141-0.377,2.141-1.148c0-0.143-0.033-0.294-0.092-0.454
	c0.33,0.413,0.532,0.872,0.532,1.254C254.489,104.183,253.373,104.623,252,104.623L252,104.623z M252,104.623"/>
<path fill="#72CBCA" d="M258.846,325.979c0,2.006-1.623,3.633-3.629,3.633s-3.633-1.627-3.633-3.633
	c0-2.007,1.627-3.634,3.633-3.634S258.846,323.972,258.846,325.979L258.846,325.979z M258.846,325.979"/>
<path fill="#72CBCA" d="M247.754,345.171v-0.896c0-0.723,0.353-1.426,0.933-1.874v-3.066h-3.354c-1.299,0-2.334-1.023-2.334-2.316
	c0-0.21,0.091-0.389,0.091-0.581v-0.831h0.393c0.429-0.622,1.095-0.933,1.85-0.933h3.076c0.031-0.155,0.123-0.205,0.123-0.329
	v-8.321c0-0.694-0.641-1.298-1.334-1.298h-10.36c-0.696,0-1.211,0.604-1.211,1.298v8.321c0,0.695,0.515,1.262,1.211,1.262h4.23
	v1.088h-1.421c-0.626,0-1.132,0.466-1.132,1.243h-4.835c-0.32,0-0.539,0.183-0.539,0.507v1.315c0,0.321,0.215,0.514,0.539,0.514
	h1.635v11.812h13.684v-5.324C248.998,346.761,247.754,346.5,247.754,345.171L247.754,345.171z M238.666,333.742
	c-0.695,0-1.325-0.494-1.325-1.188v-4.738c0-0.695,0.63-1.226,1.325-1.226h6.735c0.695,0,1.266,0.53,1.266,1.226v4.738
	c0,0.694-0.57,1.188-1.266,1.188H238.666z M238.666,333.742"/>
<path fill="#72CBCA" d="M257.635,330.214h-4.803c-2.95,0-3.135,2.948-3.135,2.948s-0.394,1.987-0.723,2.216
	c-0.096,0.068-0.215,0.119-0.352,0.119h-3.291c-0.781,0-1.412,0.621-1.412,1.402c0,0.777,0.63,1.398,1.412,1.398h3.291
	c0.507,0,0.959,0,1.019-0.014l-0.027,3.432h1.869v-7.595c0-1.531,0.987-3.285,2.532-3.285h5.729
	C259.174,330.369,258.438,330.214,257.635,330.214L257.635,330.214z M257.635,330.214"/>
<path fill="#72CBCA" d="M261.263,345.71c1.037,0,1.878-0.841,1.878-1.877v-9.652c0-1.161-0.982-2.152-2.146-2.152h-6.509
	c-1.162,0-2.07,0.991-2.07,2.152v8.578h-2.098c-0.805,0-1.477,0.62-1.477,1.425v0.53c0,0.548,0.443,0.996,0.996,0.996h4.447v1.244
	h-0.713c0,0-1.778,0.041-1.778,1.689v2.367c0,0.534,0.402,0.974,0.937,0.974c0.539,0,0.955-0.439,0.955-0.979l-0.014-2.188h3.254
	v2.193c0,0.534,0.471,0.974,1.01,0.974s1.01-0.439,1.01-0.974v-2.367c0-1.79-1.905-1.689-1.905-1.689h-0.74v-1.244H261.263z
	 M261.263,345.71"/>
<path fill="#72CBCA" d="M261.789,237.979c0,2.006-1.623,3.633-3.629,3.633s-3.633-1.627-3.633-3.633
	c0-2.007,1.627-3.634,3.633-3.634S261.789,235.972,261.789,237.979L261.789,237.979z M261.789,237.979"/>
<path fill="#72CBCA" d="M250.697,257.171v-0.896c0-0.723,0.353-1.426,0.933-1.874v-3.066h-3.354c-1.299,0-2.334-1.023-2.334-2.316
	c0-0.21,0.091-0.389,0.091-0.581v-0.831h0.394c0.429-0.622,1.096-0.933,1.85-0.933h3.076c0.031-0.155,0.123-0.205,0.123-0.329
	v-8.321c0-0.694-0.641-1.298-1.334-1.298h-10.36c-0.696,0-1.211,0.604-1.211,1.298v8.321c0,0.695,0.515,1.262,1.211,1.262h4.231
	v1.088h-1.422c-0.626,0-1.132,0.466-1.132,1.243h-4.835c-0.32,0-0.539,0.182-0.539,0.507v1.315c0,0.321,0.215,0.514,0.539,0.514
	h1.635v11.812h13.684v-5.324C251.941,258.761,250.697,258.5,250.697,257.171L250.697,257.171z M241.609,245.742
	c-0.695,0-1.325-0.494-1.325-1.188v-4.738c0-0.695,0.63-1.226,1.325-1.226h6.735c0.695,0,1.266,0.53,1.266,1.226v4.738
	c0,0.694-0.57,1.188-1.266,1.188H241.609z M241.609,245.742"/>
<path fill="#72CBCA" d="M260.578,242.214h-4.803c-2.95,0-3.135,2.948-3.135,2.948s-0.394,1.987-0.723,2.216
	c-0.096,0.068-0.215,0.119-0.352,0.119h-3.291c-0.781,0-1.412,0.621-1.412,1.402c0,0.777,0.631,1.398,1.412,1.398h3.291
	c0.507,0,0.959,0,1.019-0.014l-0.027,3.432h1.869v-7.595c0-1.531,0.987-3.285,2.532-3.285h5.729
	C262.117,242.369,261.382,242.214,260.578,242.214L260.578,242.214z M260.578,242.214"/>
<path fill="#72CBCA" d="M264.206,257.71c1.037,0,1.878-0.841,1.878-1.877v-9.652c0-1.161-0.982-2.152-2.146-2.152h-6.509
	c-1.161,0-2.07,0.991-2.07,2.152v8.578h-2.098c-0.805,0-1.477,0.62-1.477,1.425v0.53c0,0.548,0.443,0.996,0.996,0.996h4.447v1.244
	h-0.713c0,0-1.778,0.041-1.778,1.689v2.367c0,0.534,0.402,0.974,0.937,0.974c0.539,0,0.955-0.439,0.955-0.979l-0.014-2.188h3.254
	v2.193c0,0.534,0.471,0.974,1.01,0.974s1.01-0.439,1.01-0.974v-2.367c0-1.79-1.905-1.689-1.905-1.689h-0.74v-1.244H264.206z
	 M264.206,257.71"/>
<path fill="#72CBCA" d="M259.578,195.979c0,2.006-1.623,3.633-3.629,3.633s-3.633-1.627-3.633-3.633
	c0-2.007,1.627-3.634,3.633-3.634S259.578,193.972,259.578,195.979L259.578,195.979z M259.578,195.979"/>
<path fill="#72CBCA" d="M248.486,215.171v-0.896c0-0.723,0.353-1.426,0.933-1.874v-3.066h-3.354c-1.299,0-2.334-1.023-2.334-2.316
	c0-0.21,0.091-0.389,0.091-0.58v-0.832h0.394c0.429-0.622,1.095-0.933,1.85-0.933h3.076c0.031-0.155,0.123-0.205,0.123-0.329v-8.321
	c0-0.694-0.641-1.298-1.334-1.298h-10.36c-0.696,0-1.211,0.604-1.211,1.298v8.321c0,0.695,0.515,1.262,1.211,1.262h4.23v1.088
	h-1.421c-0.626,0-1.132,0.466-1.132,1.244h-4.835c-0.32,0-0.539,0.182-0.539,0.506v1.315c0,0.321,0.215,0.514,0.539,0.514h1.635
	v11.812h13.684v-5.324C249.73,216.761,248.486,216.5,248.486,215.171L248.486,215.171z M239.398,203.742
	c-0.695,0-1.325-0.494-1.325-1.188v-4.738c0-0.695,0.63-1.226,1.325-1.226h6.735c0.695,0,1.266,0.53,1.266,1.226v4.738
	c0,0.694-0.57,1.188-1.266,1.188H239.398z M239.398,203.742"/>
<path fill="#72CBCA" d="M258.367,200.214h-4.803c-2.95,0-3.135,2.948-3.135,2.948s-0.394,1.987-0.723,2.216
	c-0.096,0.068-0.215,0.119-0.352,0.119h-3.291c-0.781,0-1.412,0.621-1.412,1.402c0,0.777,0.631,1.398,1.412,1.398h3.291
	c0.507,0,0.959,0,1.019-0.014l-0.027,3.432h1.869v-7.595c0-1.531,0.987-3.285,2.532-3.285h5.729
	C259.906,200.369,259.171,200.214,258.367,200.214L258.367,200.214z M258.367,200.214"/>
<path fill="#72CBCA" d="M261.995,215.71c1.037,0,1.878-0.841,1.878-1.877v-9.652c0-1.161-0.982-2.152-2.146-2.152h-6.509
	c-1.162,0-2.07,0.991-2.07,2.152v8.578h-2.098c-0.805,0-1.477,0.62-1.477,1.425v0.53c0,0.548,0.443,0.996,0.996,0.996h4.447v1.244
	h-0.713c0,0-1.778,0.041-1.778,1.689v2.367c0,0.534,0.402,0.974,0.937,0.974c0.539,0,0.955-0.439,0.955-0.979l-0.014-2.188h3.254
	v2.193c0,0.534,0.471,0.974,1.01,0.974s1.01-0.439,1.01-0.974v-2.367c0-1.79-1.905-1.689-1.905-1.689h-0.74v-1.244H261.995z
	 M261.995,215.71"/>
<path fill="#079EA6" d="M248.41,378.082h-15.27v1.634h1.306v14.855h10.794v-14.855h3.17V378.082z M248.41,378.082"/>
<path fill="#079EA6" d="M256.307,385.5c0.002,0,0.008,0.002,0.01,0.002c1.992,0.058,3.129-0.536,3.305-2.113l0.809-7.264
	c0.15-1.354-0.929-2.387-2.006-2.781l-0.01-0.003c0,0-0.385-0.125-0.736-0.174c-0.366-0.049-0.727,0.018-0.727,0.018
	c-0.843,0.099-1.675,0.694-1.675,0.694c-1.548,1.102-3.95,1.341-7.142,0.708c-0.804-0.162-1.584,0.362-1.743,1.164
	c-0.159,0.804,0.362,1.584,1.165,1.743c1.339,0.268,2.582,0.399,3.73,0.399c1.044,0,1.981-0.116,2.861-0.336l-0.006,0.103
	l-0.515,4.63c-2.696,0.098-4.396,0.652-5.062,1.662c-0.9,1.371-2.363,6.899-2.79,8.595c-0.221,0.877,0.312,1.766,1.188,1.986
	c0.134,0.034,0.269,0.051,0.4,0.051c0.731,0,1.399-0.496,1.587-1.238c0.752-2.986,1.791-6.082,2.266-7.063
	C251.609,385.43,254.209,385.385,256.307,385.5L256.307,385.5z M256.307,385.5"/>
<path fill="#079EA6" d="M260.599,369.67c0,1.83-1.483,3.313-3.312,3.313c-1.83,0-3.313-1.483-3.313-3.313
	c0-1.829,1.483-3.312,3.313-3.312C259.115,366.358,260.599,367.841,260.599,369.67L260.599,369.67z M260.599,369.67"/>
<path fill="#079EA6" d="M262.7,382.287l0.44-5.704c0-0.032-0.012-0.063-0.035-0.087c-0.021-0.022-0.053-0.036-0.085-0.036h-1.81
	c-0.064,0-0.117,0.051-0.12,0.115l-0.409,5.708c-0.053,1.759-0.572,3.924-3.527,3.924c-0.041,0-3.269-0.008-3.269-0.008
	c-0.03,0-0.062,0.013-0.083,0.035c-0.023,0.022-0.035,0.053-0.035,0.084v1.764c0,0.066,0.053,0.119,0.118,0.119h2.968v4.054h-0.932
	c-1.219,0-2.25,1.07-2.25,2.337c0,0.066,0.053,0.12,0.119,0.12h1.176c0.064,0,0.119-0.054,0.119-0.12
	c0-0.465,0.383-0.858,0.835-0.858h3.862c0.455,0,0.837,0.394,0.837,0.858c0,0.066,0.054,0.12,0.12,0.12h1.174
	c0.066,0,0.12-0.054,0.12-0.12c0-1.267-1.03-2.337-2.251-2.337h-0.93v-4.271C261.768,387.905,262.443,385.018,262.7,382.287
	L262.7,382.287z M262.7,382.287"/>
<path fill="#079EA6" d="M245.555,376.341h-5.595l-1.893-6.938c-0.014-0.049-0.064-0.078-0.113-0.064l-1.009,0.275
	c-0.023,0.007-0.044,0.021-0.056,0.043c-0.012,0.021-0.016,0.046-0.009,0.07l2.123,7.775c0.01,0.039,0.046,0.067,0.088,0.067h6.464
	c0.051,0,0.091-0.042,0.091-0.092v-1.046C245.646,376.381,245.605,376.341,245.555,376.341L245.555,376.341z M245.555,376.341"/>
<line fill="none" stroke="#72CBCA" stroke-miterlimit="10" x1="171" y1="338.123" x2="216" y2="338.123"/>
<line fill="none" stroke="#72CBCA" stroke-miterlimit="10" x1="171" y1="249.123" x2="216" y2="249.123"/>
<line fill="none" stroke="#72CBCA" stroke-miterlimit="10" x1="171" y1="207.123" x2="216" y2="207.123"/>
<line fill="none" stroke="#079EA6" stroke-miterlimit="10" x1="125" y1="382.123" x2="217" y2="382.123"/>
<circle fill="#C2D4C8" cx="73" cy="9.623" r="7.5"/>
<circle fill="#72CBCA" cx="166" cy="105.623" r="7.5"/>
<circle fill="#72CBCA" cx="166" cy="227.623" r="7.5"/>
<circle fill="#72CBCA" cx="166" cy="273.623" r="7.5"/>
<circle fill="#C2D4C8" cx="73" cy="407.623" r="7.5"/>
</svg>
